<svg xmlns="http://www.w3.org/2000/svg" xmlns:xlink="http://www.w3.org/1999/xlink" width="17" height="17" viewBox="0 0 17 17">
  <defs>
    <linearGradient id="linear-gradient" x1="0.5" x2="0.5" y2="1" gradientUnits="objectBoundingBox">
      <stop offset="0" stop-color="#c1272d"/>
      <stop offset="1" stop-color="#f35a43"/>
    </linearGradient>
  </defs>
  <path id="skype" d="M16.2,9.943A8.1,8.1,0,0,0,16.333,8.5,7.81,7.81,0,0,0,7.056.8,4.449,4.449,0,0,0,4.5,0,4.505,4.505,0,0,0,0,4.5,4.454,4.454,0,0,0,.8,7.057,8.091,8.091,0,0,0,.667,8.5a7.811,7.811,0,0,0,9.277,7.7A4.449,4.449,0,0,0,12.5,17,4.505,4.505,0,0,0,17,12.5,4.454,4.454,0,0,0,16.2,9.943ZM12.5,16a3.473,3.473,0,0,1-2.133-.729l-.182-.14-.225.047a7.249,7.249,0,0,1-1.461.155A6.84,6.84,0,0,1,1.666,8.5a7.181,7.181,0,0,1,.156-1.461l.046-.225-.14-.182a3.5,3.5,0,0,1,4.9-4.9l.182.14.225-.047A7.3,7.3,0,0,1,8.5,1.667,6.84,6.84,0,0,1,15.333,8.5a7.181,7.181,0,0,1-.156,1.461l-.046.225.14.182A3.469,3.469,0,0,1,16,12.5,3.5,3.5,0,0,1,12.5,16Zm.219-5.761c0,2.115-2.042,3.094-4,3.094-2.344,0-4.3-1.042-4.3-2.323A1,1,0,0,1,5.469,9.917c1.115,0,1.219,1.6,3.146,1.6.916,0,1.51-.4,1.51-.937,0-.667-.573-.771-1.5-1L7.1,9.209c-1.52-.365-2.688-.99-2.688-2.74,0-2.114,2.094-2.9,3.9-2.9,1.969,0,3.958.781,3.958,1.979a1.075,1.075,0,0,1-1.083,1.136c-1.011,0-1.042-1.2-2.678-1.2-.916,0-1.5.249-1.5.8,0,.605.594.74,1.387.928l1.082.25c1.48.333,3.241.957,3.241,2.769Z" fill="url(#linear-gradient)"/>
</svg>
