<svg xmlns="http://www.w3.org/2000/svg" width="60" height="56.077" viewBox="0 0 60 56.077">
  <g id="note" transform="translate(0 -16.739)">
    <g id="Group_3391" data-name="Group 3391" transform="translate(0 16.739)">
      <g id="Group_3390" data-name="Group 3390" transform="translate(0 0)">
        <path id="Path_10205" data-name="Path 10205" d="M59.553,40.228l-8.319-4.687V29.425a.879.879,0,0,0-1.758,0V45.419L30,56.391,10.524,45.419V18.5H49.476V25.3a.879.879,0,0,0,1.758,0V17.618a.879.879,0,0,0-.879-.879H9.645a.879.879,0,0,0-.879.879V35.541L.448,40.228A.879.879,0,0,0,0,40.994V71.937a.879.879,0,0,0,.879.879h9.1a.879.879,0,1,0,0-1.758H2.753L18.607,51.99l10.962,6.176a.879.879,0,0,0,.863,0L41.393,51.99,57.248,71.058H14.055a.879.879,0,0,0,0,1.758H59.121A.879.879,0,0,0,60,71.937V40.994a.879.879,0,0,0-.447-.766ZM8.766,37.559v6.87l-6.1-3.435ZM1.758,69.505V42.5L17.05,51.113ZM51.234,37.559l6.1,3.435-6.1,3.435Zm7.009,31.946L42.95,51.113,58.242,42.5Z" transform="translate(0 -16.739)" fill="#c1272d"/>
      </g>
    </g>
    <path id="Path_10206" data-name="Path 10206" d="M161.435,72.294H130.849a.967.967,0,0,0,0,1.934h30.586a.967.967,0,0,0,0-1.934Z" transform="translate(-116.14 -48.394)" fill="#c1272d"/>
    <path id="Path_10207" data-name="Path 10207" d="M323.509,162.051h-6.6a.967.967,0,0,0,0,1.934h6.6a.967.967,0,0,0,0-1.934Z" transform="translate(-279.466 -128.338)" fill="#c1272d"/>
    <path id="Path_10208" data-name="Path 10208" d="M130.849,162.051a.967.967,0,0,0,0,1.934h19.509a.967.967,0,0,0,0-1.934Z" transform="translate(-115.394 -128.338)" fill="#c1272d"/>
    <path id="Path_10209" data-name="Path 10209" d="M158.5,118.46a.967.967,0,0,0-.967-.967H130.811a.967.967,0,0,0,0,1.934H157.53A.967.967,0,0,0,158.5,118.46Z" transform="translate(-115.795 -88.985)" fill="#c1272d"/>
    <path id="Path_10210" data-name="Path 10210" d="M162.368,208.217a.967.967,0,0,0-.967-.967H130.811a.967.967,0,0,0,0,1.934H161.4A.967.967,0,0,0,162.368,208.217Z" transform="translate(-116.106 -168.258)" fill="#c1272d"/>
    <path id="Path_10211" data-name="Path 10211" d="M223.86,252.261a.967.967,0,0,0,0,1.934h6.6a.967.967,0,0,0,0-1.934Z" transform="translate(-197.161 -208.011)" fill="#c1272d"/>
  </g>
</svg>
