<svg xmlns="http://www.w3.org/2000/svg" width="60" height="59.552" viewBox="0 0 60 59.552">
  <g id="signs" transform="translate(-0.001 -1.91)">
    <g id="Group_3387" data-name="Group 3387" transform="translate(21.767 12.683)">
      <g id="Group_3386" data-name="Group 3386">
        <path id="Path_10203" data-name="Path 10203" d="M195.318,94.512a8.193,8.193,0,0,0-4.6,1.407.893.893,0,1,0,1,1.481,6.438,6.438,0,1,1-2.095,2.329.893.893,0,1,0-1.578-.838,8.234,8.234,0,1,0,7.277-4.378Z" transform="translate(-187.085 -94.512)" fill="#c1272d"/>
      </g>
    </g>
    <g id="Group_3389" data-name="Group 3389" transform="translate(0.001 1.91)">
      <g id="Group_3388" data-name="Group 3388" transform="translate(0 0)">
        <path id="Path_10204" data-name="Path 10204" d="M59.933,60.249,53.288,44.283l0-.01-2-4.8a.876.876,0,0,0-.809-.54H41.856a44.285,44.285,0,0,0,4.161-6.745,25.849,25.849,0,0,0,2.91-11.346,18.928,18.928,0,1,0-37.855,0,25.847,25.847,0,0,0,2.91,11.346,44.29,44.29,0,0,0,4.161,6.745H9.526a.876.876,0,0,0-.809.54L5.043,48.3a.876.876,0,1,0,1.618.673l.787-1.892a19.8,19.8,0,0,0,4.63-.672,15.707,15.707,0,0,0,8.061-4.935l.164.2c.643.768,1.284,1.495,1.912,2.181-3.988,1.379-6.363,3.742-6.363,6.346a4.729,4.729,0,0,0,.963,2.8,14.355,14.355,0,0,1-8.8,2.143A14.86,14.86,0,0,1,4.4,54.4l.912-2.192a.876.876,0,1,0-1.618-.673L.068,60.249a.876.876,0,0,0,.809,1.213H59.124a.876.876,0,0,0,.809-1.213ZM49.891,40.681l1.3,3.127a15.733,15.733,0,0,0-8.086,3.48,11.123,11.123,0,0,0-5.314-3.445c.626-.684,1.265-1.409,1.906-2.174.276-.329.544-.658.808-.988ZM11.677,44.7a18.435,18.435,0,0,1-3.484.589l1.917-4.606h8.4A13.89,13.89,0,0,1,11.677,44.7Zm9.969-4.155c-7.291-8.708-8.821-15.523-8.821-19.706a17.175,17.175,0,1,1,34.35,0c0,4.178-1.526,10.983-8.8,19.679A67.183,67.183,0,0,1,30,48.862,67.07,67.07,0,0,1,21.647,40.544Zm14.8,9.652c0,.716-2.276,2.109-6.449,2.109s-6.449-1.393-6.449-2.109c0-.5,1.125-1.339,3.24-1.793,1.546,1.4,2.585,2.21,2.673,2.279a.877.877,0,0,0,1.072,0c.088-.068,1.127-.877,2.674-2.279C35.325,48.856,36.449,49.693,36.449,50.2Zm7.819,9.514h0a30.434,30.434,0,0,0,3.8-1.485.876.876,0,0,0-.751-1.584A36.651,36.651,0,0,1,35.389,59.71H2.191l1.534-3.686a16.488,16.488,0,0,0,4.073.852c.414.034.861.054,1.337.054a16.335,16.335,0,0,0,8.9-2.639c2.487,2.1,6.871,3.469,11.962,3.469a.876.876,0,0,0,0-1.753,20.466,20.466,0,0,1-8.991-1.865C18.845,53.051,17.6,51.613,17.6,50.2c0-1.826,2.049-3.644,5.348-4.747a.872.872,0,0,0,.446-.339c.658.683,1.29,1.311,1.882,1.882-.276.086-.541.179-.791.282-1.735.707-2.691,1.745-2.691,2.923s.956,2.215,2.691,2.922A15.063,15.063,0,0,0,30,54.057a15.066,15.066,0,0,0,5.511-.939c1.735-.707,2.691-1.745,2.691-2.922s-.956-2.215-2.691-2.923c-.25-.1-.515-.2-.79-.281.548-.527,1.13-1.1,1.734-1.728,2.806.826,4.886,2.161,5.636,3.684a.857.857,0,0,0,.05.107A2.773,2.773,0,0,1,42.4,50.2c0,2.015-2.481,3.994-6.32,5.041a.876.876,0,1,0,.461,1.691c4.7-1.28,7.612-3.86,7.612-6.732a4.383,4.383,0,0,0-.2-1.321A14,14,0,0,1,51.9,45.511l2.328,5.595a13.643,13.643,0,0,1-3.96,3.861.876.876,0,1,0,.984,1.45,16.875,16.875,0,0,0,3.769-3.406l2.789,6.7H44.268Z" transform="translate(-0.001 -1.91)" fill="#c1272d"/>
      </g>
    </g>
  </g>
</svg>
