<svg xmlns="http://www.w3.org/2000/svg" width="60" height="49.336" viewBox="0 0 60 49.336">
  <g id="social_1_" data-name="social (1)" transform="translate(0 -45.5)">
    <g id="Group_3393" data-name="Group 3393" transform="translate(0 45.5)">
      <g id="Group_3392" data-name="Group 3392">
        <path id="Path_10212" data-name="Path 10212" d="M57,67.6a10.231,10.231,0,0,0-3.645-2.351,6.445,6.445,0,1,0-7.217,0,10.166,10.166,0,0,0-4.842,3.8A14.063,14.063,0,0,0,34.4,64.021a9.785,9.785,0,1,0-8.8,0,14.062,14.062,0,0,0-6.9,5.028,10.249,10.249,0,0,0-4.844-3.8,6.445,6.445,0,1,0-7.21,0,10.174,10.174,0,0,0-1.623.777.879.879,0,1,0,.9,1.511A8.5,8.5,0,0,1,17.662,70.7,13.917,13.917,0,0,0,16,77.316v1.348a.879.879,0,1,0,1.758,0V77.316a12.246,12.246,0,0,1,24.492,0V89.563H17.754V82.434a.879.879,0,1,0-1.758,0v.918H1.758v-8.5A8.434,8.434,0,0,1,3.353,69.9a.879.879,0,1,0-1.427-1.027A10.183,10.183,0,0,0,0,74.855V87.746a.879.879,0,0,0,.879.879H16v5.332a.879.879,0,0,0,.879.879h26.25A.879.879,0,0,0,44,93.957V88.625h8.418a.879.879,0,1,0,0-1.758H44V85.109H58.242v1.758H56.25a.879.879,0,1,0,0,1.758h2.871A.879.879,0,0,0,60,87.746V74.855A10.192,10.192,0,0,0,57,67.6Zm-46.743-3a4.688,4.688,0,1,1,4.688-4.688A4.693,4.693,0,0,1,10.254,64.6Zm11.719-9.316A8.027,8.027,0,1,1,30,63.313,8.036,8.036,0,0,1,21.973,55.285ZM16,86.867H1.758V85.109H16Zm26.25,6.211H17.754V91.32H42.246Zm2.813-33.164A4.688,4.688,0,1,1,49.746,64.6,4.693,4.693,0,0,1,45.059,59.914ZM58.242,83.352H44V77.316a13.917,13.917,0,0,0-1.667-6.62,8.5,8.5,0,0,1,15.9,4.159Z" transform="translate(0 -45.5)" fill="#c1272d"/>
      </g>
    </g>
    <g id="Group_3395" data-name="Group 3395" transform="translate(21.752 70.596)">
      <g id="Group_3394" data-name="Group 3394">
        <path id="Path_10213" data-name="Path 10213" d="M200.529,260.657a3.942,3.942,0,0,0-3.076-1.146,6.3,6.3,0,0,0-3.707,1.979,6.309,6.309,0,0,0-3.709-1.979,3.936,3.936,0,0,0-3.072,1.146,4.338,4.338,0,0,0-1.463,3.48c.168,4.267,5.863,9.089,7.6,10.465a1.028,1.028,0,0,0,1.279,0h0a35.323,35.323,0,0,0,4-3.719c2.315-2.54,3.527-4.81,3.6-6.746A4.338,4.338,0,0,0,200.529,260.657Zm-.291,3.411c-.059,1.49-1.147,3.438-3.147,5.634a33.329,33.329,0,0,1-3.343,3.161A33.331,33.331,0,0,1,190.4,269.7c-2-2.2-3.088-4.143-3.147-5.634a2.62,2.62,0,0,1,.9-2.124,2.273,2.273,0,0,1,1.571-.69c.055,0,.111,0,.168.007,1.614.13,3.094,2,3.159,2.087a.878.878,0,0,0,.692.336h0a.88.88,0,0,0,.692-.34c.062-.08,1.536-1.952,3.154-2.083a2.221,2.221,0,0,1,1.741.684A2.62,2.62,0,0,1,200.238,264.068Z" transform="translate(-185.499 -259.498)" fill="#c1272d"/>
      </g>
    </g>
  </g>
</svg>
